<svg xmlns="http://www.w3.org/2000/svg" viewBox="-24 -24 1016 728" width="1016" height="728"><style>
  svg { color: #2c3e50; }
  @media (prefers-color-scheme: dark) { svg { color: #e6eaef; } }
  rect[fill-opacity="0.06"], rect[fill-opacity="0.04"] { fill-opacity: 0.14; }
</style><defs><marker id="arrow" viewBox="0 0 10 10" refX="9" refY="5" markerWidth="8" markerHeight="8" orient="auto-start-reverse"><path d="M0,0 L10,5 L0,10 z" fill="currentColor" /></marker></defs><rect x="48" y="108" width="150" height="60" rx="4" fill="currentColor" fill-opacity="0.06" stroke="currentColor" stroke-width="1.5" /><text x="123" y="138" text-anchor="middle" dominant-baseline="central" font-family="system-ui, -apple-system, &#39;Segoe UI&#39;, sans-serif" font-size="14" fill="currentColor"><tspan x="123" dy="0"><tspan>Alice</tspan></tspan></text><rect x="278" y="108" width="150" height="60" rx="4" fill="currentColor" fill-opacity="0.06" stroke="currentColor" stroke-width="1.5" /><text x="353" y="138" text-anchor="middle" dominant-baseline="central" font-family="system-ui, -apple-system, &#39;Segoe UI&#39;, sans-serif" font-size="14" fill="currentColor"><tspan x="353" dy="0"><tspan>Bill</tspan></tspan></text><rect x="508" y="48" width="150" height="60" rx="4" fill="currentColor" fill-opacity="0.06" stroke="currentColor" stroke-width="1.5" /><text x="583" y="78" text-anchor="middle" dominant-baseline="central" font-family="system-ui, -apple-system, &#39;Segoe UI&#39;, sans-serif" font-size="14" fill="currentColor"><tspan x="583" dy="0"><tspan>Caterpillar</tspan></tspan></text><rect x="738" y="108" width="150" height="60" rx="4" fill="currentColor" fill-opacity="0.06" stroke="currentColor" stroke-width="1.5" /><text x="813" y="138" text-anchor="middle" dominant-baseline="central" font-family="system-ui, -apple-system, &#39;Segoe UI&#39;, sans-serif" font-size="14" fill="currentColor"><tspan x="813" dy="0"><tspan>Dormouse</tspan></tspan></text><path d="M 198 138 L 278 138" fill="none" stroke="currentColor" stroke-width="1.5" marker-end="url(#arrow)" /><path d="M 428 138 L 468 138 L 468 78 L 508 78" fill="none" stroke="currentColor" stroke-width="1.5" marker-end="url(#arrow)" /><path d="M 658 78 L 698 78 L 698 138 L 738 138" fill="none" stroke="currentColor" stroke-width="1.5" marker-end="url(#arrow)" /><path d="M 813 168 L 813 188 L 353 188 L 353 168" fill="none" stroke="currentColor" stroke-width="1.5" marker-end="url(#arrow)" /></svg>