<svg xmlns="http://www.w3.org/2000/svg" viewBox="-24 -24 1546 728" width="1546" height="728"><style>
  svg { color: #2c3e50; }
  @media (prefers-color-scheme: dark) { svg { color: #e6eaef; } }
  rect[fill-opacity="0.06"], rect[fill-opacity="0.04"] { fill-opacity: 0.14; }
</style><defs><marker id="arrow" viewBox="0 0 10 10" refX="9" refY="5" markerWidth="8" markerHeight="8" orient="auto-start-reverse"><path d="M0,0 L10,5 L0,10 z" fill="currentColor" /></marker></defs><rect x="48" y="63" width="210" height="60" rx="4" fill="currentColor" fill-opacity="0.06" stroke="currentColor" stroke-width="1.5" /><text x="153" y="93" text-anchor="middle" dominant-baseline="central" font-family="system-ui, -apple-system, &#39;Segoe UI&#39;, sans-serif" font-size="14" fill="currentColor"><tspan x="153" dy="0"><tspan>Alice</tspan></tspan></text><polygon points="443,48 548,93 443,138 338,93" fill="currentColor" fill-opacity="0.06" stroke="currentColor" stroke-width="1.5" /><text x="443" y="93" text-anchor="middle" dominant-baseline="central" font-family="system-ui, -apple-system, &#39;Segoe UI&#39;, sans-serif" font-size="14" fill="currentColor"><tspan x="443" dy="-9"><tspan>Bill</tspan></tspan><tspan x="443" dy="18"><tspan>decision</tspan></tspan></text><rect x="918" y="63" width="210" height="60" rx="4" fill="currentColor" fill-opacity="0.06" stroke="currentColor" stroke-width="1.5" /><text x="1023" y="93" text-anchor="middle" dominant-baseline="central" font-family="system-ui, -apple-system, &#39;Segoe UI&#39;, sans-serif" font-size="14" fill="currentColor"><tspan x="1023" dy="0"><tspan>Caterpillar</tspan></tspan></text><rect x="628" y="63" width="210" height="60" rx="4" fill="currentColor" fill-opacity="0.06" stroke="currentColor" stroke-width="1.5" /><text x="733" y="93" text-anchor="middle" dominant-baseline="central" font-family="system-ui, -apple-system, &#39;Segoe UI&#39;, sans-serif" font-size="14" fill="currentColor"><tspan x="733" dy="0"><tspan>Dormouse</tspan></tspan></text><rect x="1208" y="63" width="210" height="60" rx="4" fill="currentColor" fill-opacity="0.06" stroke="currentColor" stroke-width="1.5" /><text x="1313" y="93" text-anchor="middle" dominant-baseline="central" font-family="system-ui, -apple-system, &#39;Segoe UI&#39;, sans-serif" font-size="14" fill="currentColor"><tspan x="1313" dy="0"><tspan>Eaglet</tspan></tspan></text><rect x="48" y="258" width="210" height="60" rx="4" fill="currentColor" fill-opacity="0.06" stroke="currentColor" stroke-width="1.5" /><text x="153" y="288" text-anchor="middle" dominant-baseline="central" font-family="system-ui, -apple-system, &#39;Segoe UI&#39;, sans-serif" font-size="14" fill="currentColor"><tspan x="153" dy="0"><tspan>Fawn</tspan></tspan></text><rect x="338" y="258" width="210" height="60" rx="4" fill="currentColor" fill-opacity="0.06" stroke="currentColor" stroke-width="1.5" /><text x="443" y="288" text-anchor="middle" dominant-baseline="central" font-family="system-ui, -apple-system, &#39;Segoe UI&#39;, sans-serif" font-size="14" fill="currentColor"><tspan x="443" dy="0"><tspan>Gryphon</tspan></tspan></text><path d="M 258 93 L 338 93" fill="none" stroke="currentColor" stroke-width="1.5" marker-end="url(#arrow)" /><path d="M 443 138 L 443 158 L 318 158 L 318 43 L 1023 43 L 1023 63" fill="none" stroke="currentColor" stroke-width="1.5" marker-end="url(#arrow)" /><path d="M 548 93 L 628 93" fill="none" stroke="currentColor" stroke-width="1.5" marker-end="url(#arrow)" /><path d="M 838 93 L 918 93" fill="none" stroke="currentColor" stroke-width="1.5" marker-end="url(#arrow)" /><path d="M 1128 93 L 1208 93" fill="none" stroke="currentColor" stroke-width="1.5" marker-end="url(#arrow)" /><path d="M 1313 123 L 1313 190.5 L 153 190.5 L 153 258" fill="none" stroke="currentColor" stroke-width="1.5" marker-end="url(#arrow)" /><path d="M 258 288 L 338 288" fill="none" stroke="currentColor" stroke-width="1.5" marker-end="url(#arrow)" /></svg>