<svg xmlns="http://www.w3.org/2000/svg" class="doodles-svg doodles-svg-structure" viewBox="-24 -24 928 1356" width="928" height="1356"><style>
  svg { color: #2c3e50; }
  @media (prefers-color-scheme: dark) { svg { color: #e6eaef; } }
  rect[fill-opacity="0.06"], rect[fill-opacity="0.04"] { fill-opacity: 0.14; }
</style><defs><marker id="arrow" viewBox="0 0 10 10" refX="9" refY="5" markerWidth="8" markerHeight="8" orient="auto-start-reverse"><path d="M0,0 L10,5 L0,10 z" fill="currentColor" /></marker></defs><rect x="258" y="48" width="150" height="60" rx="4" fill="currentColor" fill-opacity="0.06" stroke="currentColor" stroke-width="1.5" /><text x="333" y="78" text-anchor="middle" dominant-baseline="central" font-family="system-ui, -apple-system, &#39;Segoe UI&#39;, sans-serif" font-size="14" fill="currentColor"><tspan x="333" dy="0"><tspan>Alice</tspan></tspan></text><rect x="258" y="188" width="150" height="60" rx="4" fill="currentColor" fill-opacity="0.06" stroke="currentColor" stroke-width="1.5" /><text x="333" y="218" text-anchor="middle" dominant-baseline="central" font-family="system-ui, -apple-system, &#39;Segoe UI&#39;, sans-serif" font-size="14" fill="currentColor"><tspan x="333" dy="0"><tspan>Hatter</tspan></tspan></text><rect x="153" y="328" width="150" height="60" rx="4" fill="currentColor" fill-opacity="0.06" stroke="currentColor" stroke-width="1.5" /><text x="228" y="358" text-anchor="middle" dominant-baseline="central" font-family="system-ui, -apple-system, &#39;Segoe UI&#39;, sans-serif" font-size="14" fill="currentColor"><tspan x="228" dy="0"><tspan>Cheshire</tspan></tspan></text><rect x="153" y="468" width="150" height="60" rx="4" fill="currentColor" fill-opacity="0.06" stroke="currentColor" stroke-width="1.5" /><text x="228" y="498" text-anchor="middle" dominant-baseline="central" font-family="system-ui, -apple-system, &#39;Segoe UI&#39;, sans-serif" font-size="14" fill="currentColor"><tspan x="228" dy="0"><tspan>Dormouse</tspan></tspan></text><rect x="363" y="468" width="150" height="60" rx="4" fill="currentColor" fill-opacity="0.06" stroke="currentColor" stroke-width="1.5" /><text x="438" y="498" text-anchor="middle" dominant-baseline="central" font-family="system-ui, -apple-system, &#39;Segoe UI&#39;, sans-serif" font-size="14" fill="currentColor"><tspan x="438" dy="0"><tspan>Duchess</tspan></tspan></text><rect x="363" y="608" width="150" height="60" rx="4" fill="currentColor" fill-opacity="0.06" stroke="currentColor" stroke-width="1.5" /><text x="438" y="638" text-anchor="middle" dominant-baseline="central" font-family="system-ui, -apple-system, &#39;Segoe UI&#39;, sans-serif" font-size="14" fill="currentColor"><tspan x="438" dy="0"><tspan>Gryphon</tspan></tspan></text><rect x="153" y="748" width="150" height="60" rx="4" fill="currentColor" fill-opacity="0.06" stroke="currentColor" stroke-width="1.5" /><text x="228" y="778" text-anchor="middle" dominant-baseline="central" font-family="system-ui, -apple-system, &#39;Segoe UI&#39;, sans-serif" font-size="14" fill="currentColor"><tspan x="228" dy="0"><tspan>Mock</tspan></tspan></text><rect x="153" y="888" width="150" height="60" rx="4" fill="currentColor" fill-opacity="0.06" stroke="currentColor" stroke-width="1.5" /><text x="228" y="918" text-anchor="middle" dominant-baseline="central" font-family="system-ui, -apple-system, &#39;Segoe UI&#39;, sans-serif" font-size="14" fill="currentColor"><tspan x="228" dy="0"><tspan>Mouse</tspan></tspan></text><rect x="363" y="748" width="150" height="60" rx="4" fill="currentColor" fill-opacity="0.06" stroke="currentColor" stroke-width="1.5" /><text x="438" y="778" text-anchor="middle" dominant-baseline="central" font-family="system-ui, -apple-system, &#39;Segoe UI&#39;, sans-serif" font-size="14" fill="currentColor"><tspan x="438" dy="0"><tspan>Knave</tspan></tspan></text><rect x="258" y="1028" width="150" height="60" rx="4" fill="currentColor" fill-opacity="0.06" stroke="currentColor" stroke-width="1.5" /><text x="333" y="1058" text-anchor="middle" dominant-baseline="central" font-family="system-ui, -apple-system, &#39;Segoe UI&#39;, sans-serif" font-size="14" fill="currentColor"><tspan x="333" dy="0"><tspan>Caterpillar</tspan></tspan></text><rect x="48" y="1168" width="150" height="60" rx="4" fill="currentColor" fill-opacity="0.06" stroke="currentColor" stroke-width="1.5" /><text x="123" y="1198" text-anchor="middle" dominant-baseline="central" font-family="system-ui, -apple-system, &#39;Segoe UI&#39;, sans-serif" font-size="14" fill="currentColor"><tspan x="123" dy="0"><tspan>Pat</tspan></tspan></text><rect x="258" y="1168" width="150" height="60" rx="4" fill="currentColor" fill-opacity="0.06" stroke="currentColor" stroke-width="1.5" /><text x="333" y="1198" text-anchor="middle" dominant-baseline="central" font-family="system-ui, -apple-system, &#39;Segoe UI&#39;, sans-serif" font-size="14" fill="currentColor"><tspan x="333" dy="0"><tspan>Bill</tspan></tspan></text><rect x="468" y="1168" width="150" height="60" rx="4" fill="currentColor" fill-opacity="0.06" stroke="currentColor" stroke-width="1.5" /><text x="543" y="1198" text-anchor="middle" dominant-baseline="central" font-family="system-ui, -apple-system, &#39;Segoe UI&#39;, sans-serif" font-size="14" fill="currentColor"><tspan x="543" dy="0"><tspan>Queen</tspan></tspan></text><path d="M 333 108 L 333 188" fill="none" stroke="currentColor" stroke-width="1.5" marker-end="url(#arrow)" /><path d="M 333 248 L 333 288 L 228 288 L 228 328" fill="none" stroke="currentColor" stroke-width="1.5" marker-end="url(#arrow)" /><path d="M 203 388 L 203 428 L 228 428 L 228 468" fill="none" stroke="currentColor" stroke-width="1.5" marker-end="url(#arrow)" /><path d="M 303 498 L 323 498 L 323 358 L 303 358" fill="none" stroke="currentColor" stroke-width="1.5" marker-end="url(#arrow)" /><path d="M 252.99999999999997 388 L 252.99999999999997 428 L 438 428 L 438 468" fill="none" stroke="currentColor" stroke-width="1.5" marker-end="url(#arrow)" /><path d="M 438 528 L 438 608" fill="none" stroke="currentColor" stroke-width="1.5" marker-end="url(#arrow)" /><path d="M 413 668 L 413 708 L 228 708 L 228 748" fill="none" stroke="currentColor" stroke-width="1.5" marker-end="url(#arrow)" /><path d="M 228 808 L 228 888" fill="none" stroke="currentColor" stroke-width="1.5" marker-end="url(#arrow)" /><path d="M 463 668 L 463 708 L 438 708 L 438 748" fill="none" stroke="currentColor" stroke-width="1.5" marker-end="url(#arrow)" /><path d="M 228 948 L 228 988 L 308 988 L 308 1028" fill="none" stroke="currentColor" stroke-width="1.5" marker-end="url(#arrow)" /><path d="M 438 808 L 438 918 L 358 918 L 358 1028" fill="none" stroke="currentColor" stroke-width="1.5" marker-end="url(#arrow)" /><path d="M 295.5 1088 L 295.5 1128 L 123 1128 L 123 1168" fill="none" stroke="currentColor" stroke-width="1.5" marker-end="url(#arrow)" /><path d="M 333 1088 L 333 1168" fill="none" stroke="currentColor" stroke-width="1.5" marker-end="url(#arrow)" /><path d="M 370.5 1088 L 370.5 1128 L 543 1128 L 543 1168" fill="none" stroke="currentColor" stroke-width="1.5" marker-end="url(#arrow)" /></svg>