<svg xmlns="http://www.w3.org/2000/svg" viewBox="-24 -24 928 1092" width="928" height="1092"><style>
  svg { color: #2c3e50; }
  @media (prefers-color-scheme: dark) { svg { color: #e6eaef; } }
  rect[fill-opacity="0.06"], rect[fill-opacity="0.04"] { fill-opacity: 0.14; }
</style><defs><marker id="arrow" viewBox="0 0 10 10" refX="9" refY="5" markerWidth="8" markerHeight="8" orient="auto-start-reverse"><path d="M0,0 L10,5 L0,10 z" fill="currentColor" /></marker></defs><rect x="48" y="48" width="711" height="916" rx="6" fill="currentColor" fill-opacity="0.04" stroke="currentColor" /><path d="M54,48 L753,48 Q759,48 759,54 L759,76 L48,76 L48,54 Q48,48 54,48 Z" fill="currentColor" fill-opacity="0.08" /><text x="403.5" y="62" text-anchor="middle" dominant-baseline="central" font-family="system-ui, -apple-system, &#39;Segoe UI&#39;, sans-serif" font-size="14" font-weight="bold" fill="currentColor">Tea party</text><rect x="501" y="96" width="210" height="60" rx="4" fill="currentColor" fill-opacity="0.06" stroke="currentColor" stroke-width="1.5" /><text x="606" y="126" text-anchor="middle" dominant-baseline="central" font-family="system-ui, -apple-system, &#39;Segoe UI&#39;, sans-serif" font-size="14" fill="currentColor"><tspan x="606" dy="0"><tspan>Alice</tspan></tspan></text><rect x="96" y="236" width="210" height="60" rx="4" fill="currentColor" fill-opacity="0.06" stroke="currentColor" stroke-width="1.5" /><text x="201" y="266" text-anchor="middle" dominant-baseline="central" font-family="system-ui, -apple-system, &#39;Segoe UI&#39;, sans-serif" font-size="14" fill="currentColor"><tspan x="201" dy="-9"><tspan>Hatter</tspan></tspan><tspan x="201" dy="18"><tspan>note one</tspan></tspan></text><rect x="96" y="406" width="210" height="60" rx="4" fill="currentColor" fill-opacity="0.06" stroke="currentColor" stroke-width="1.5" /><text x="201" y="436" text-anchor="middle" dominant-baseline="central" font-family="system-ui, -apple-system, &#39;Segoe UI&#39;, sans-serif" font-size="14" fill="currentColor"><tspan x="201" dy="-9"><tspan>Cheshire</tspan></tspan><tspan x="201" dy="18"><tspan>note two / three</tspan></tspan></text><rect x="231" y="546" width="210" height="60" rx="4" fill="currentColor" fill-opacity="0.06" stroke="currentColor" stroke-width="1.5" /><text x="336" y="576" text-anchor="middle" dominant-baseline="central" font-family="system-ui, -apple-system, &#39;Segoe UI&#39;, sans-serif" font-size="14" fill="currentColor"><tspan x="336" dy="0"><tspan>Caterpillar</tspan></tspan></text><polygon points="606,686 711,731 606,776 501,731" fill="currentColor" fill-opacity="0.06" stroke="currentColor" stroke-width="1.5" /><text x="606" y="731" text-anchor="middle" dominant-baseline="central" font-family="system-ui, -apple-system, &#39;Segoe UI&#39;, sans-serif" font-size="14" fill="currentColor"><tspan x="606" dy="-9"><tspan>Duchess</tspan></tspan><tspan x="606" dy="18"><tspan>decide?</tspan></tspan></text><rect x="396" y="856" width="210" height="60" rx="4" fill="currentColor" fill-opacity="0.06" stroke="currentColor" stroke-width="1.5" /><text x="501" y="886" text-anchor="middle" dominant-baseline="central" font-family="system-ui, -apple-system, &#39;Segoe UI&#39;, sans-serif" font-size="14" fill="currentColor"><tspan x="501" dy="0"><tspan>Pat — emit signal</tspan></tspan></text><polygon points="471,236 576,281 471,326 366,281" fill="currentColor" fill-opacity="0.06" stroke="currentColor" stroke-width="1.5" /><text x="471" y="281" text-anchor="middle" dominant-baseline="central" font-family="system-ui, -apple-system, &#39;Segoe UI&#39;, sans-serif" font-size="14" fill="currentColor"><tspan x="471" dy="-9"><tspan>Mock</tspan></tspan><tspan x="471" dy="18"><tspan>full?</tspan></tspan></text><rect x="501" y="406" width="210" height="60" rx="4" fill="currentColor" fill-opacity="0.06" stroke="currentColor" stroke-width="1.5" /><text x="606" y="436" text-anchor="middle" dominant-baseline="central" font-family="system-ui, -apple-system, &#39;Segoe UI&#39;, sans-serif" font-size="14" fill="currentColor"><tspan x="606" dy="0"><tspan>Knave</tspan></tspan></text><path d="M 571 156 L 571 196 L 201 196 L 201 236" fill="none" stroke="currentColor" stroke-width="1.5" marker-end="url(#arrow)" /><path d="M 201 296 L 201 406" fill="none" stroke="currentColor" stroke-width="1.5" marker-end="url(#arrow)" /><path d="M 201 466 L 201 506 L 336 506 L 336 546" fill="none" stroke="currentColor" stroke-width="1.5" marker-end="url(#arrow)" /><path d="M 336 606 L 336 646 L 606 646 L 606 686" fill="none" stroke="currentColor" stroke-width="1.5" marker-end="url(#arrow)" /><path d="M 641 776 L 641 796 L 731 796 L 731 136 L 711 136" fill="none" stroke="currentColor" stroke-width="1.5" marker-end="url(#arrow)" /><text x="731" y="511" text-anchor="middle" dominant-baseline="central" font-family="system-ui, -apple-system, &#39;Segoe UI&#39;, sans-serif" font-size="14" fill="currentColor" paint-order="stroke" stroke-width="4" stroke-linejoin="round" style="stroke: var(--doodles-label-halo, transparent)"><tspan x="731" dy="0"><tspan>resume</tspan></tspan></text><path d="M 571 776 L 571 816 L 501 816 L 501 856" fill="none" stroke="currentColor" stroke-width="1.5" marker-end="url(#arrow)" /><text x="536" y="816" text-anchor="middle" dominant-baseline="central" font-family="system-ui, -apple-system, &#39;Segoe UI&#39;, sans-serif" font-size="14" fill="currentColor" paint-order="stroke" stroke-width="4" stroke-linejoin="round" style="stroke: var(--doodles-label-halo, transparent)"><tspan x="536" dy="0"><tspan>halt</tspan></tspan></text><path d="M 641 156 L 641 196 L 471 196 L 471 236" fill="none" stroke="currentColor" stroke-width="1.5" marker-end="url(#arrow)" /><path d="M 471 326 L 471 366 L 606 366 L 606 406" fill="none" stroke="currentColor" stroke-width="1.5" marker-end="url(#arrow)" /><text x="538.5" y="366" text-anchor="middle" dominant-baseline="central" font-family="system-ui, -apple-system, &#39;Segoe UI&#39;, sans-serif" font-size="14" fill="currentColor" paint-order="stroke" stroke-width="4" stroke-linejoin="round" style="stroke: var(--doodles-label-halo, transparent)"><tspan x="538.5" dy="0"><tspan>yes</tspan></tspan></text><path d="M 711 436 L 731 436 L 731 76 L 711 76 L 711 116" fill="none" stroke="currentColor" stroke-width="1.5" marker-end="url(#arrow)" /></svg>